<svg width="16" height="16" viewBox="0 0 16 16" fill="none" xmlns="http://www.w3.org/2000/svg">
<path d="M3.46797 13.1359C3.6013 13.2693 3.8013 13.3359 4.0013 13.3359C4.2013 13.3359 4.4013 13.2693 4.53464 13.1359L6.46797 11.2026C6.73464 10.9359 6.73464 10.4693 6.46797 10.2026C6.2013 9.93594 5.8013 9.93594 5.53464 10.2026L4.66797 11.0693V3.26927C4.66797 2.93594 4.4013 2.66927 4.0013 2.66927C3.6013 2.66927 3.33464 2.93594 3.33464 3.26927V11.0693L2.46797 10.2026C2.2013 9.93594 1.8013 9.93594 1.53464 10.2026C1.26797 10.4693 1.26797 10.9359 1.53464 11.2026C1.9696 11.6376 2.29583 11.9638 2.51332 12.1813C2.72546 12.3934 3.04368 12.7116 3.46797 13.1359Z" fill="#172B4D"/>
<path d="M14 3.33594H8.66667C8.26667 3.33594 8 3.6026 8 4.0026C8 4.4026 8.26667 4.66927 8.66667 4.66927H14C14.4 4.66927 14.6667 4.4026 14.6667 4.0026C14.6667 3.6026 14.4 3.33594 14 3.33594Z" fill="#172B4D"/>
<path d="M8.66667 8.66927H12C12.4 8.66927 12.6667 8.4026 12.6667 8.0026C12.6667 7.6026 12.4 7.33594 12 7.33594H8.66667C8.26667 7.33594 8 7.6026 8 8.0026C8 8.4026 8.26667 8.66927 8.66667 8.66927Z" fill="#172B4D"/>
<path d="M8.66667 12.6693H10.6667C11.0667 12.6693 11.3333 12.4026 11.3333 12.0026C11.3333 11.6026 11.0667 11.3359 10.6667 11.3359H8.66667C8.26667 11.3359 8 11.6026 8 12.0026C8 12.4026 8.26667 12.6693 8.66667 12.6693Z" fill="#172B4D"/>
</svg>
